<svg id="Lag_3" data-name="Lag 3" xmlns="http://www.w3.org/2000/svg" viewBox="0 0 486.15 494.44"><defs><style>.cls-1{fill:#fff;}.cls-2,.cls-6{fill:#417fa0;}.cls-3,.cls-4,.cls-5,.cls-7{fill:none;stroke:#417fa0;}.cls-3,.cls-4,.cls-5,.cls-6,.cls-7{stroke-miterlimit:10;}.cls-3{stroke-width:7px;}.cls-4{stroke-width:10px;}.cls-5{stroke-width:4px;}.cls-6{stroke:#fff;}.cls-6,.cls-7{stroke-width:5px;}</style></defs><title>coach</title><ellipse class="cls-1" cx="244.82" cy="247.23" rx="241.33" ry="245.48"/><path class="cls-2" d="M509.62,250l-0.1,4.39-0.13,5.38c0,1.07,0,2.22-.11,3.45L509,267.16A236.63,236.63,0,0,1,501.11,315L499,322.74l-2.65,8c-0.46,1.37-.89,2.77-1.4,4.15l-1.61,4.18-1.65,4.28-0.84,2.17-1,2.15-3.91,8.82-4.47,9c-3.2,6-6.61,12.19-10.57,18.31a247,247,0,0,1-28.42,36.66,251.92,251.92,0,0,1-38.87,33.73,246,246,0,0,1-49.39,26.42c-2.23,1-4.54,1.74-6.85,2.55l-7,2.45-7.13,2.11-3.59,1.06c-1.19.37-2.43,0.61-3.64,0.92l-7.34,1.78c-1.22.32-2.47,0.55-3.72,0.78l-3.75.71-3.76.71c-1.26.24-2.51,0.48-3.79,0.63l-7.65,1c-2.56.4-5.14,0.59-7.73,0.8l-7.81.64-7.88.26-4,.13c-1.41,0-2.65,0-4-.06l-7.93-.15c-2.66-.09-5.35-0.35-8-0.52-5.4-.26-10.74-1.08-16.14-1.7a238.94,238.94,0,0,1-32.21-6.94l-4-1.13c-1.33-.4-2.64-0.87-4-1.31l-8-2.68-7.85-3.08c-1.3-.53-2.64-1-3.92-1.59l-3.86-1.74-3.87-1.75c-1.29-.58-2.59-1.15-3.84-1.83l-7.6-3.9c-1.28-.63-2.51-1.35-3.75-2.07L146,464.62l-3.73-2.15c-1.24-.73-2.42-1.54-3.64-2.3-2.41-1.56-4.86-3.09-7.26-4.7l-7.06-5c-2.4-1.63-4.61-3.51-6.91-5.29s-4.6-3.56-6.77-5.52a247.24,247.24,0,0,1-46.61-53l-4.8-7.55-4.45-7.78c-1.54-2.57-2.84-5.26-4.21-7.93s-2.79-5.31-4-8.08l-3.67-8.23-3.29-8.4c-1.15-2.78-2.06-5.65-3-8.51l-1.43-4.29c-0.23-.72-0.49-1.43-0.71-2.15l-0.61-2.18-2.45-8.72c-0.74-2.93-1.36-5.88-2.05-8.83-0.32-1.48-.7-2.94-1-4.43l-0.79-4.47-0.79-4.47c-0.26-1.49-.55-3-0.71-4.48l-1.14-9c-0.22-1.5-.32-3-0.43-4.52l-0.35-4.53-0.34-4.53c-0.12-1.51-.1-3-0.16-4.54l-0.24-9.17,0.23-9c0.06-1.5,0-3,.16-4.49l0.34-4.56,0.35-4.56c0.11-1.52.21-3,.43-4.54l1.14-9c0.16-1.51.44-3,.71-4.48l0.79-4.47,0.79-4.47c0.28-1.48.66-3,1-4.43,0.69-2.94,1.31-5.9,2.05-8.83l2.45-8.72,0.61-2.18c0.22-.72.47-1.43,0.71-2.15l1.43-4.29c1-2.86,1.87-5.73,3-8.51l3.29-8.4,3.67-8.23c1.16-2.77,2.62-5.4,4-8.08s2.67-5.36,4.21-7.93l4.45-7.78,4.8-7.55a247.81,247.81,0,0,1,46.6-53c2.16-2,4.49-3.71,6.77-5.52s4.51-3.66,6.91-5.29l7.06-5c2.4-1.6,4.84-3.13,7.26-4.7,1.22-.77,2.4-1.58,3.64-2.3L146,35.36l3.72-2.14c1.24-.71,2.47-1.44,3.75-2.07l7.6-3.9c1.25-.67,2.55-1.25,3.84-1.83l3.87-1.75,3.86-1.74c1.28-.59,2.62-1.05,3.92-1.59l7.85-3.08,8-2.68c1.33-.43,2.64-0.91,4-1.31l4-1.13A239,239,0,0,1,232.56,5.2c5.4-.63,10.75-1.45,16.12-1.7,2.68-.17,5.35-0.42,8-0.52l8-.15c1.35,0,2.61-.07,4-0.06l3.93,0.13,7.83,0.25,7.83,0.64c2.6,0.22,5.2.4,7.75,0.8l7.65,1c1.27,0.15,2.53.39,3.79,0.63L311.25,7,315,7.69c1.25,0.23,2.49.46,3.72,0.78l7.34,1.78c1.21,0.31,2.45.55,3.64,0.92l3.59,1.06,7.13,2.11,7,2.45c2.31,0.81,4.62,1.59,6.85,2.55a246,246,0,0,1,49.39,26.42,251.78,251.78,0,0,1,38.87,33.74,247,247,0,0,1,28.42,36.67c4,6.13,7.37,12.3,10.57,18.31l4.47,9,3.9,8.82,1,2.15,0.84,2.17,1.65,4.28,1.61,4.18c0.51,1.39.94,2.79,1.4,4.15l2.65,8,2.15,7.76A236.63,236.63,0,0,1,509,232.84l0.29,3.94c0.09,1.23.07,2.39,0.11,3.45l0.13,5.38Zm0,0-0.12-4.39-0.14-5.38c0-1.07,0-2.22-.12-3.45l-0.3-3.94a236.52,236.52,0,0,0-8-47.78l-2.17-7.75-2.67-8c-0.47-1.37-.9-2.76-1.41-4.15L493.05,161l-1.66-4.27-0.84-2.17-1-2.15-3.93-8.8-4.54-8.92c-3.24-6-6.7-12.11-10.7-18.19a246.24,246.24,0,0,0-28.63-36.32,241.82,241.82,0,0,0-39.06-33.11,244,244,0,0,0-49.35-25.54c-2.22-.93-4.52-1.66-6.82-2.44l-6.92-2.33-7.08-2-3.56-1c-1.19-.35-2.41-0.57-3.61-0.86l-7.28-1.66c-1.21-.3-2.45-0.51-3.68-0.72l-3.71-.65L307,9.22c-1.24-.22-2.49-0.44-3.75-0.57l-7.57-.93c-2.53-.36-5.07-0.51-7.63-0.69l-7.68-.53-7.83-.15-3.93-.07c-1.22,0-2.58.08-3.87,0.11l-7.86.26c-2.63.13-5.25,0.42-7.89,0.62-5.28.32-10.54,1.2-15.84,1.89a234.73,234.73,0,0,0-31.54,7.25l-3.92,1.16c-1.3.41-2.58,0.89-3.88,1.34l-7.76,2.74-7.65,3.13c-1.27.54-2.57,1-3.82,1.61l-3.76,1.76a242.43,242.43,0,0,0-101.4,88.68,247.25,247.25,0,0,0-29,63.53l-2.36,8.49c-0.71,2.85-1.31,5.73-2,8.59-0.31,1.44-.67,2.86-0.94,4.31l-0.76,4.35-0.76,4.35c-0.25,1.45-.53,2.9-0.68,4.36l-1.08,8.76c-0.21,1.46-.3,2.92-0.41,4.38l-0.32,4.37-0.32,4.37c-0.11,1.46-.09,3-0.14,4.46l-0.22,9,0.21,8.75c0.05,1.47,0,2.95.14,4.42l0.32,4.41,0.32,4.41c0.1,1.47.2,2.94,0.41,4.4L33,285.22c0.15,1.47.42,2.91,0.68,4.36l0.76,4.35,0.76,4.35c0.27,1.44.63,2.87,0.94,4.31,0.66,2.86,1.26,5.74,2,8.59l2.36,8.49a247.37,247.37,0,0,0,29,63.53,242.37,242.37,0,0,0,101.4,88.69l3.76,1.76c1.25,0.6,2.55,1.07,3.82,1.61l7.65,3.13,7.76,2.74c1.29,0.44,2.57.93,3.88,1.34l3.92,1.16a234.75,234.75,0,0,0,31.54,7.25c5.3,0.69,10.56,1.57,15.82,1.89,2.63,0.2,5.23.49,7.87,0.62l7.92,0.26c1.3,0,2.68.1,3.9,0.11l3.9-.07,7.77-.15L288,493c2.56-.18,5.12-0.32,7.64-0.69l7.57-.93c1.26-.13,2.51-0.35,3.75-0.57l3.72-.65,3.71-.65c1.24-.21,2.47-0.42,3.68-0.72l7.28-1.66c1.2-.29,2.43-0.51,3.61-0.86l3.56-1,7.08-2,6.92-2.33c2.3-.77,4.6-1.51,6.82-2.44A244.05,244.05,0,0,0,402.74,453a241.68,241.68,0,0,0,39.06-33.11,246.24,246.24,0,0,0,28.63-36.32c4-6.08,7.46-12.22,10.7-18.19l4.54-8.92,3.93-8.8,1-2.15,0.84-2.17,1.66-4.27,1.62-4.17c0.52-1.38.94-2.78,1.41-4.15l2.67-8,2.17-7.75a236.52,236.52,0,0,0,8-47.78l0.3-3.94c0.09-1.23.08-2.39,0.12-3.45l0.14-5.38Z" transform="translate(-23.47 -2.77)"/><path class="cls-3" d="M146,192.71C149,113.5,187.49,71.83,268.3,67.73" transform="translate(-23.47 -2.77)"/><path class="cls-3" d="M267.4,67.73c80.8,4.1,119.32,45.78,122.26,125" transform="translate(-23.47 -2.77)"/><ellipse class="cls-2" cx="246.82" cy="98.86" rx="15.01" ry="25.28"/><rect class="cls-1" x="246.82" y="89.15" width="23.34" height="18.71"/><path class="cls-4" d="M378.42,188.06c-4.84,46.65-9.25,85.56-38.88,118.77-16.14,22.55-59.55,47.37-69.37,47.37S201.68,322.38,185.42,287s-25.31-63.48-28.28-101.8" transform="translate(-23.47 -2.77)"/><path class="cls-5" d="M262.54,323.73c-11.69-.62-13.1-12.73-13-36.73h35.88s-1.2,29.59-4.89,33.4C276.41,324.82,262.54,323.73,262.54,323.73Z" transform="translate(-23.47 -2.77)"/><path class="cls-1" d="M235.25,312L258,308.86c3.81-.53,2.19-6.31-1.6-5.79l-22.74,3.15c-3.81.53-2.19,6.31,1.6,5.79h0Z" transform="translate(-23.47 -2.77)"/><path class="cls-2" d="M234.85,310.56l22.74-3.15c1.9-.26,1.09-3.15-0.8-2.89l-22.74,3.15c-1.9.26-1.09,3.15,0.8,2.89h0Z" transform="translate(-23.47 -2.77)"/><path class="cls-1" d="M240.34,328.25L259.78,316c3.26-2,.25-7.24-3-5.18l-19.44,12.21c-3.26,2-.25,7.24,3,5.18h0Z" transform="translate(-23.47 -2.77)"/><path class="cls-2" d="M239.58,327L259,314.74c1.63-1,.13-3.62-1.51-2.59l-19.43,12.21c-1.63,1-.13,3.62,1.51,2.59h0Z" transform="translate(-23.47 -2.77)"/><path class="cls-1" d="M233.76,296.93l22.53,4.41c3.77,0.74,5.39-5,1.6-5.79l-22.53-4.41c-3.77-.74-5.39,5-1.6,5.79h0Z" transform="translate(-23.47 -2.77)"/><path class="cls-2" d="M234.16,295.48l22.52,4.41c1.89,0.37,2.69-2.52.8-2.89L235,292.59c-1.89-.37-2.69,2.52-0.8,2.89h0Z" transform="translate(-23.47 -2.77)"/><path class="cls-2" d="M278.91,320l-1.1-.47-0.07,0h0a10,10,0,0,1-1.73-1.19,5.62,5.62,0,0,1-1.38-1.77,3.92,3.92,0,0,1-.3-2.35c0-.19.09-0.38,0.14-0.56l0.15-.45,0.3-.9,2.38-7.22L282,290.57l-3.84,14.72-1.92,7.36-0.24.92-0.12.46-0.07.37a2.28,2.28,0,0,0,.26,1.35,5.47,5.47,0,0,0,2.48,2l-0.09,0,1.13,0.4Z" transform="translate(-23.47 -2.77)"/><ellipse class="cls-2" cx="198.99" cy="209.01" rx="17.79" ry="13.48"/><ellipse class="cls-2" cx="286.23" cy="209.01" rx="17.79" ry="13.48"/><path class="cls-2" d="M243.58,189.89l-15.18-4.34c-3.59-1-6.17-.4-9.77.36l-31.34,6.65c-5.66,1.2-3.27,9.88,2.39,8.68l30.25-6.42a31.76,31.76,0,0,0,5.37-1.14c1.56-.65-1.39.16-1.46-0.07a12.78,12.78,0,0,0,2.49.71l14.85,4.25c5.58,1.6,8-7.09,2.39-8.68h0Z" transform="translate(-23.47 -2.77)"/><path class="cls-2" d="M295.58,198.57l14.85-4.25c0.45-.13,2.26-0.34,2.49-0.71,0.1-.15-3.05-0.61-1.61,0s3.82,0.81,5.52,1.17l30.25,6.42c5.65,1.2,8.06-7.48,2.39-8.68l-31.34-6.65c-3.42-.72-6-1.44-9.43-0.46l-15.52,4.44c-5.56,1.59-3.2,10.28,2.39,8.68h0Z" transform="translate(-23.47 -2.77)"/><path class="cls-2" d="M332.66,359.44a141.41,141.41,0,0,1-4.76,18.64c-2.65,8.15-6.61,20.83-15,24.89-12.23,5.9-23.86-11.14-28.79-19.83-5.47-9.64-7.77-20.08-9.85-30.87q-2.67-13.91-4.62-28c-0.53-3.81-6.31-2.19-5.79,1.6,2.93,21,5.14,44,16.34,62.43,6.25,10.29,16.83,23.32,30.4,21.49,10.89-1.47,16.61-13.32,20.3-22.37A132.4,132.4,0,0,0,338.45,361c0.68-3.78-5.11-5.4-5.79-1.6h0Z" transform="translate(-23.47 -2.77)"/><path class="cls-2" d="M192.2,361a136.73,136.73,0,0,0,6.16,22.52c3.34,9.13,8.27,21.3,18,25.23,12.8,5.16,24.62-6.15,31.49-15.63,7.63-10.51,11.51-22,14.14-34.62,2.26-10.8,4.07-21.72,5.62-32.64,0.53-3.78-5.25-5.41-5.79-1.6q-1.65,11.66-3.79,23.25c-1.94,10.59-3.74,21.63-8.59,31.35s-14.86,26.38-27.89,25c-9.67-1-14.6-14.23-17.43-22A136.72,136.72,0,0,1,198,359.44c-0.69-3.79-6.47-2.19-5.79,1.6h0Z" transform="translate(-23.47 -2.77)"/><path class="cls-6" d="M384.93,232.16c-81.45-81.69-152.59-82.4-235,0,0.13,4.73-9.92-29.75-5.33-42,4.52-12,86.69-51.69,122.72-51.69h0.18c36,0,118.2,39.67,122.72,51.69C394.85,202.41,385.69,236.76,384.93,232.16Z" transform="translate(-23.47 -2.77)"/><polyline class="cls-7" points="238.57 210.23 238.57 257.73 261.07 257.73"/></svg>