<svg id="Lag_1" data-name="Lag 1" xmlns="http://www.w3.org/2000/svg" viewBox="0 0 486.15 494.44"><defs><style>.cls-1{fill:#fff;}.cls-2{fill:#417fa0;}.cls-3,.cls-4{fill:none;stroke:#417fa0;stroke-miterlimit:10;}.cls-3{stroke-width:5px;}.cls-4{stroke-width:4px;}</style></defs><title>Feed</title><ellipse class="cls-1" cx="244.82" cy="247.23" rx="241.33" ry="245.48"/><path class="cls-2" d="M491.33,250l-0.1,4.39-0.13,5.38c0,1.07,0,2.22-.11,3.45l-0.29,3.94A236.63,236.63,0,0,1,482.81,315l-2.15,7.76-2.65,8c-0.46,1.37-.89,2.77-1.4,4.15L475,339.12l-1.65,4.28-0.84,2.17-1,2.15-3.91,8.82-4.47,9c-3.2,6-6.61,12.19-10.57,18.31a247,247,0,0,1-28.42,36.66,251.92,251.92,0,0,1-38.87,33.73,246,246,0,0,1-49.39,26.42c-2.23,1-4.54,1.74-6.85,2.55l-7,2.45L315,487.75l-3.59,1.06c-1.19.37-2.43,0.61-3.64,0.92l-7.34,1.78c-1.22.32-2.47,0.55-3.72,0.78l-3.75.71-3.76.71c-1.26.24-2.51,0.48-3.79,0.63l-7.65,1c-2.56.4-5.14,0.59-7.73,0.8l-7.81.64-7.88.26-4,.13c-1.41,0-2.65,0-4-.06l-7.93-.15c-2.66-.09-5.35-0.35-8-0.52-5.4-.26-10.74-1.08-16.14-1.7a238.94,238.94,0,0,1-32.21-6.94l-4-1.13c-1.33-.4-2.64-0.87-4-1.31l-8-2.68-7.85-3.08c-1.3-.53-2.64-1-3.92-1.59l-3.86-1.74-3.87-1.75c-1.29-.58-2.59-1.15-3.84-1.83l-7.6-3.9c-1.28-.63-2.51-1.35-3.75-2.07l-3.72-2.14L124,462.48c-1.24-.73-2.42-1.54-3.64-2.3-2.41-1.56-4.86-3.09-7.26-4.7l-7.06-5c-2.4-1.63-4.61-3.51-6.91-5.29s-4.6-3.56-6.77-5.52a247.24,247.24,0,0,1-46.61-53l-4.8-7.55-4.45-7.78c-1.54-2.57-2.84-5.26-4.21-7.93s-2.79-5.31-4-8.08l-3.67-8.23-3.29-8.4c-1.15-2.78-2.06-5.65-3-8.51l-1.43-4.29c-0.23-.72-0.49-1.43-0.71-2.15l-0.61-2.18-2.45-8.72c-0.74-2.93-1.36-5.88-2.05-8.83-0.32-1.48-.7-2.94-1-4.43l-0.79-4.47-0.79-4.47c-0.26-1.49-.55-3-0.71-4.48l-1.14-9c-0.22-1.5-.32-3-0.43-4.52l-0.35-4.53-0.34-4.53c-0.12-1.51-.1-3-0.16-4.54l-0.24-9.17,0.23-9c0.06-1.5,0-3,.16-4.49l0.34-4.56,0.35-4.56c0.11-1.52.21-3,.43-4.54l1.14-9c0.16-1.51.44-3,.71-4.48l0.79-4.47,0.79-4.47c0.28-1.48.66-3,1-4.43,0.69-2.94,1.31-5.9,2.05-8.83l2.45-8.72,0.61-2.18c0.22-.72.47-1.43,0.71-2.15l1.43-4.29c1-2.86,1.87-5.73,3-8.51l3.29-8.4,3.67-8.23c1.16-2.77,2.62-5.4,4-8.08s2.67-5.36,4.21-7.93l4.45-7.78,4.8-7.55a247.81,247.81,0,0,1,46.6-53c2.16-2,4.49-3.71,6.77-5.52s4.51-3.66,6.91-5.29l7.06-5c2.4-1.6,4.84-3.13,7.26-4.7,1.22-.77,2.4-1.58,3.64-2.3l3.73-2.15,3.72-2.14c1.24-.71,2.47-1.44,3.75-2.07l7.6-3.9c1.25-.67,2.55-1.25,3.84-1.83l3.87-1.75,3.86-1.74c1.28-.59,2.62-1.05,3.92-1.59l7.85-3.08,8-2.68c1.33-.43,2.64-0.91,4-1.31l4-1.13A239,239,0,0,1,214.27,5.2c5.4-.63,10.75-1.45,16.12-1.7,2.68-.17,5.35-0.42,8-0.52l8-.15c1.35,0,2.61-.07,4-0.06l3.93,0.13,7.83,0.25L270,3.8c2.6,0.22,5.2.4,7.75,0.8l7.65,1c1.27,0.15,2.53.39,3.79,0.63L293,7l3.75,0.71c1.25,0.23,2.49.46,3.72,0.78l7.34,1.78c1.21,0.31,2.45.55,3.64,0.92L315,12.23l7.13,2.11,7,2.45c2.31,0.81,4.62,1.59,6.85,2.55a246,246,0,0,1,49.39,26.42,251.78,251.78,0,0,1,38.87,33.74,247,247,0,0,1,28.42,36.67c4,6.13,7.37,12.3,10.57,18.31l4.47,9,3.9,8.82,1,2.15,0.84,2.17,1.65,4.28,1.61,4.18c0.51,1.39.94,2.79,1.4,4.15l2.65,8,2.15,7.76a236.63,236.63,0,0,1,7.89,47.82l0.29,3.94c0.09,1.23.07,2.39,0.11,3.45l0.13,5.38Zm0,0-0.12-4.39-0.14-5.38c0-1.07,0-2.22-.12-3.45l-0.3-3.94a236.52,236.52,0,0,0-8-47.78l-2.17-7.75-2.67-8c-0.47-1.37-.9-2.76-1.41-4.15L474.76,161l-1.66-4.27-0.84-2.17-1-2.15-3.93-8.8-4.54-8.92c-3.24-6-6.7-12.11-10.7-18.19A246.24,246.24,0,0,0,423.5,80.16a241.82,241.82,0,0,0-39.06-33.11,244,244,0,0,0-49.35-25.54c-2.22-.93-4.52-1.66-6.82-2.44l-6.92-2.33-7.08-2-3.56-1c-1.19-.35-2.41-0.57-3.61-0.86l-7.28-1.66c-1.21-.3-2.45-0.51-3.68-0.72l-3.71-.65-3.72-.65C287.46,9,286.22,8.78,285,8.65l-7.57-.93c-2.53-.36-5.07-0.51-7.63-0.69l-7.68-.53-7.83-.15-3.93-.07c-1.22,0-2.58.08-3.87,0.11l-7.86.26c-2.63.13-5.25,0.42-7.89,0.62-5.28.32-10.54,1.2-15.84,1.89a234.73,234.73,0,0,0-31.54,7.25l-3.92,1.16c-1.3.41-2.58,0.89-3.88,1.34l-7.76,2.74-7.65,3.13c-1.27.54-2.57,1-3.82,1.61l-3.76,1.76a242.43,242.43,0,0,0-101.4,88.68,247.25,247.25,0,0,0-29,63.53l-2.36,8.49c-0.71,2.85-1.31,5.73-2,8.59-0.31,1.44-.67,2.86-0.94,4.31l-0.76,4.35-0.76,4.35c-0.25,1.45-.53,2.9-0.68,4.36l-1.08,8.76c-0.21,1.46-.3,2.92-0.41,4.38l-0.32,4.37-0.32,4.37c-0.11,1.46-.09,3-0.14,4.46l-0.22,9,0.21,8.75c0.05,1.47,0,2.95.14,4.42l0.32,4.41,0.32,4.41c0.1,1.47.2,2.94,0.41,4.4l1.08,8.76c0.15,1.47.42,2.91,0.68,4.36l0.76,4.35,0.76,4.35c0.27,1.44.63,2.87,0.94,4.31,0.66,2.86,1.26,5.74,2,8.59l2.36,8.49a247.37,247.37,0,0,0,29,63.53,242.37,242.37,0,0,0,101.4,88.69l3.76,1.76c1.25,0.6,2.55,1.07,3.82,1.61l7.65,3.13,7.76,2.74c1.29,0.44,2.57.93,3.88,1.34l3.92,1.16a234.75,234.75,0,0,0,31.54,7.25c5.3,0.69,10.56,1.57,15.82,1.89,2.63,0.2,5.23.49,7.87,0.62l7.92,0.26c1.3,0,2.68.1,3.9,0.11l3.9-.07,7.77-.15,7.71-.53c2.56-.18,5.12-0.32,7.64-0.69l7.57-.93c1.26-.13,2.51-0.35,3.75-0.57l3.72-.65,3.71-.65c1.24-.21,2.47-0.42,3.68-0.72l7.28-1.66c1.2-.29,2.43-0.51,3.61-0.86l3.56-1,7.08-2,6.92-2.33c2.3-.77,4.6-1.51,6.82-2.44A244.06,244.06,0,0,0,384.44,453a241.68,241.68,0,0,0,39.06-33.11,246.24,246.24,0,0,0,28.63-36.32c4-6.08,7.46-12.22,10.7-18.19l4.54-8.92,3.93-8.8,1-2.15,0.84-2.17,1.66-4.27,1.62-4.17c0.52-1.38.94-2.78,1.41-4.15l2.67-8,2.17-7.75a236.52,236.52,0,0,0,8-47.78l0.3-3.94c0.09-1.23.08-2.39,0.12-3.45l0.14-5.38Z" transform="translate(-5.18 -2.77)"/><rect class="cls-2" x="119.28" y="122.32" width="250.83" height="47.21"/><rect class="cls-3" x="120.84" y="176.8" width="146" height="103.51"/><polygon class="cls-4" points="184.82 213.54 184.82 237.18 204.19 225.36 184.82 213.54"/><rect class="cls-2" x="273.77" y="175.28" width="96.34" height="106.7"/><rect class="cls-2" x="119.28" y="287.57" width="250.83" height="84.39"/><rect class="cls-1" x="139.47" y="300.11" width="59.31" height="59.31"/><rect class="cls-1" x="292.28" y="300.11" width="59.31" height="59.31"/><rect class="cls-1" x="215.59" y="300.11" width="59.31" height="59.31"/></svg>