<svg id="Lag_3_kopi" data-name="Lag 3 kopi" xmlns="http://www.w3.org/2000/svg" viewBox="0 0 486.15 494.44"><defs><style>.cls-1{fill:#fff;}.cls-10,.cls-2,.cls-4,.cls-5,.cls-6{fill:#417fa0;}.cls-13,.cls-3,.cls-7,.cls-9{fill:none;}.cls-3,.cls-7{stroke:#417fa0;}.cls-10,.cls-13,.cls-3,.cls-4,.cls-5,.cls-6,.cls-7,.cls-9{stroke-miterlimit:10;}.cls-3,.cls-4{stroke-width:4px;}.cls-10,.cls-13,.cls-4,.cls-5,.cls-6,.cls-9{stroke:#fff;}.cls-5{stroke-width:9px;}.cls-6,.cls-7,.cls-9{stroke-width:6px;}.cls-8{fill:#58afd6;}.cls-10{stroke-width:12px;}.cls-11{fill:#e6e6e6;}.cls-12{fill:#29abe2;}</style></defs><title>GB1</title><ellipse class="cls-1" cx="244.82" cy="247.23" rx="241.33" ry="245.48"/><path class="cls-2" d="M490.6,248l-0.1,4.39-0.13,5.38c0,1.07,0,2.22-.11,3.45L490,265.18A236.63,236.63,0,0,1,482.08,313l-2.15,7.76-2.65,8c-0.46,1.37-.89,2.77-1.4,4.15l-1.61,4.18-1.65,4.28-0.84,2.17-1,2.15-3.91,8.82-4.47,9c-3.2,6-6.61,12.19-10.57,18.31a247,247,0,0,1-28.42,36.66,251.92,251.92,0,0,1-38.87,33.73,246,246,0,0,1-49.39,26.42c-2.23,1-4.54,1.74-6.85,2.55l-7,2.45-7.13,2.11-3.59,1.06c-1.19.37-2.42,0.61-3.64,0.92l-7.34,1.78c-1.22.32-2.47,0.55-3.72,0.78l-3.75.71-3.76.71c-1.26.24-2.51,0.48-3.79,0.63l-7.65,1c-2.56.4-5.14,0.59-7.73,0.8l-7.81.64-7.88.26-4,.13c-1.41,0-2.65,0-4-.06l-7.93-.15c-2.66-.09-5.35-0.35-8-0.52-5.4-.26-10.74-1.08-16.14-1.7a238.94,238.94,0,0,1-32.21-6.94l-4-1.13c-1.33-.4-2.64-0.87-4-1.31l-8-2.68-7.85-3.08c-1.3-.53-2.64-1-3.92-1.59l-3.86-1.74-3.87-1.75c-1.29-.58-2.59-1.15-3.84-1.83l-7.6-3.9c-1.28-.63-2.51-1.35-3.75-2.07L127,462.64l-3.73-2.15c-1.24-.73-2.42-1.54-3.64-2.3-2.41-1.56-4.86-3.09-7.26-4.7l-7.06-5c-2.4-1.63-4.61-3.51-6.91-5.29s-4.6-3.56-6.77-5.52a247.24,247.24,0,0,1-46.61-53l-4.8-7.55-4.45-7.78c-1.54-2.57-2.84-5.26-4.21-7.93s-2.79-5.31-4-8.08l-3.67-8.23-3.29-8.4c-1.15-2.78-2.06-5.65-3-8.51l-1.43-4.29c-0.23-.72-0.49-1.43-0.71-2.15l-0.61-2.18-2.45-8.72c-0.74-2.93-1.36-5.88-2.05-8.83-0.32-1.48-.7-2.94-1-4.43L8.6,293.17,7.81,288.7c-0.26-1.49-.55-3-0.71-4.48l-1.14-9c-0.22-1.5-.32-3-0.43-4.52l-0.35-4.53-0.34-4.53c-0.12-1.51-.1-3-0.16-4.54l-0.24-9.17,0.23-9c0.06-1.5,0-3,.16-4.49l0.34-4.56,0.35-4.56c0.11-1.52.21-3,.43-4.54l1.14-9c0.16-1.51.44-3,.71-4.48l0.79-4.47,0.79-4.47c0.28-1.48.66-3,1-4.43,0.69-2.94,1.31-5.9,2.05-8.83l2.45-8.72,0.61-2.18c0.22-.72.47-1.43,0.71-2.15l1.43-4.29c1-2.86,1.87-5.73,3-8.51l3.29-8.4,3.67-8.23c1.16-2.77,2.62-5.4,4-8.08s2.67-5.36,4.21-7.93l4.45-7.78,4.8-7.55a247.81,247.81,0,0,1,46.6-53c2.16-2,4.49-3.71,6.77-5.52s4.51-3.66,6.91-5.29l7.06-5c2.4-1.6,4.84-3.13,7.26-4.7,1.22-.77,2.4-1.58,3.64-2.3L127,33.37l3.72-2.14c1.24-.71,2.47-1.44,3.75-2.07l7.6-3.9c1.25-.67,2.55-1.25,3.84-1.83l3.87-1.75,3.86-1.74c1.28-.59,2.62-1.05,3.92-1.59l7.85-3.08,8-2.68c1.33-.43,2.64-0.91,4-1.31l4-1.13a239,239,0,0,1,32.21-6.94c5.4-.63,10.75-1.45,16.12-1.7,2.68-.17,5.35-0.42,8-0.52l8-.15c1.35,0,2.61-.07,4-0.06l3.93,0.13,7.83,0.25,7.83,0.64c2.6,0.22,5.2.4,7.75,0.8l7.65,1c1.27,0.15,2.53.39,3.79,0.63L292.22,5,296,5.71c1.25,0.23,2.49.46,3.72,0.78L307,8.27c1.21,0.31,2.45.55,3.64,0.92l3.59,1.06,7.13,2.11,7,2.45c2.31,0.81,4.62,1.59,6.85,2.55a246,246,0,0,1,49.39,26.42,251.78,251.78,0,0,1,38.87,33.74,247,247,0,0,1,28.42,36.67c4,6.13,7.37,12.3,10.57,18.31l4.47,9,3.9,8.82,1,2.15,0.84,2.17,1.65,4.28,1.61,4.18c0.51,1.39.94,2.79,1.4,4.15l2.65,8,2.15,7.76A236.63,236.63,0,0,1,490,230.85l0.29,3.94c0.09,1.23.07,2.39,0.11,3.45l0.13,5.38Zm0,0-0.12-4.39-0.14-5.38c0-1.07,0-2.22-.12-3.45l-0.3-3.94a236.52,236.52,0,0,0-8-47.78l-2.17-7.75-2.67-8c-0.47-1.37-.9-2.76-1.41-4.15L474,159l-1.66-4.27-0.84-2.17-1-2.15-3.93-8.8-4.54-8.92c-3.24-6-6.7-12.11-10.7-18.19a246.23,246.23,0,0,0-28.63-36.32,241.82,241.82,0,0,0-39.06-33.11,244,244,0,0,0-49.35-25.54c-2.22-.93-4.52-1.66-6.82-2.44l-6.92-2.33-7.08-2-3.56-1c-1.18-.35-2.41-0.57-3.61-0.86l-7.28-1.66c-1.21-.3-2.45-0.51-3.68-0.72l-3.71-.65L288,7.24c-1.24-.22-2.49-0.44-3.75-0.57l-7.57-.93c-2.53-.36-5.07-0.51-7.63-0.69l-7.68-.53-7.83-.15-3.93-.07c-1.22,0-2.58.08-3.87,0.11l-7.86.26c-2.63.13-5.25,0.42-7.89,0.62-5.28.32-10.54,1.2-15.84,1.89a234.73,234.73,0,0,0-31.54,7.25l-3.92,1.16c-1.3.41-2.58,0.89-3.88,1.34L167,19.66l-7.65,3.13c-1.27.54-2.57,1-3.82,1.61l-3.76,1.76A242.43,242.43,0,0,0,50.4,114.83a247.26,247.26,0,0,0-29,63.53L19,186.84c-0.71,2.85-1.31,5.73-2,8.59-0.31,1.44-.67,2.86-0.94,4.31l-0.76,4.35-0.76,4.35c-0.25,1.45-.53,2.9-0.68,4.36l-1.08,8.76c-0.21,1.46-.3,2.92-0.41,4.38l-0.32,4.37-0.32,4.37c-0.11,1.46-.09,3-0.14,4.46l-0.22,9,0.21,8.75c0.05,1.47,0,2.95.14,4.42l0.32,4.41,0.32,4.41c0.1,1.47.2,2.94,0.41,4.4l1.08,8.76c0.15,1.47.42,2.91,0.68,4.36l0.76,4.35,0.76,4.35c0.27,1.44.63,2.87,0.94,4.31,0.66,2.86,1.26,5.74,2,8.59l2.36,8.49a247.37,247.37,0,0,0,29,63.53,242.37,242.37,0,0,0,101.4,88.69l3.76,1.76c1.25,0.6,2.55,1.07,3.82,1.61l7.65,3.13,7.76,2.74c1.29,0.44,2.57.93,3.88,1.34l3.92,1.16a234.75,234.75,0,0,0,31.54,7.25c5.3,0.69,10.56,1.57,15.82,1.89,2.63,0.2,5.23.49,7.87,0.62l7.92,0.26c1.3,0,2.68.1,3.9,0.11l3.9-.07,7.77-.15L269,491c2.56-.18,5.12-0.32,7.64-0.69l7.57-.93c1.26-.13,2.51-0.35,3.75-0.57l3.72-.65,3.71-.65c1.24-.21,2.47-0.42,3.68-0.72l7.28-1.66c1.2-.29,2.43-0.51,3.61-0.86l3.56-1,7.08-2,6.92-2.33c2.3-.77,4.6-1.51,6.82-2.44A244.06,244.06,0,0,0,383.71,451a241.68,241.68,0,0,0,39.06-33.11,246.24,246.24,0,0,0,28.63-36.32c4-6.08,7.46-12.22,10.7-18.19l4.54-8.92,3.93-8.8,1-2.15,0.84-2.17L474,337l1.62-4.17c0.52-1.38.94-2.78,1.41-4.15l2.67-8,2.17-7.75a236.52,236.52,0,0,0,8-47.78l0.3-3.94c0.09-1.23.08-2.39,0.12-3.45l0.14-5.38Z" transform="translate(-4.45 -0.79)"/><path class="cls-3" d="M314.22,110c62.92,0,113.84,51.79,113.84,115.8" transform="translate(-4.45 -0.79)"/><path class="cls-3" d="M202.52,225.79c0-64,50.92-115.8,113.84-115.8" transform="translate(-4.45 -0.79)"/><path class="cls-4" d="M413.41,195.12s23.57-6.27,31.93,2.06,11.3,44-3.06,49-30.29-2-30.29-2Z" transform="translate(-4.45 -0.79)"/><ellipse class="cls-5" cx="309.92" cy="224.22" rx="106.52" ry="108.35"/><path class="cls-6" d="M341.57,206.32c17.45-23.59,35-24.29,52.53-1.86" transform="translate(-4.45 -0.79)"/><path class="cls-6" d="M376.85,259.54q-49.22,47.08-98.44,0" transform="translate(-4.45 -0.79)"/><path class="cls-7" d="M71.56,264.31c0-64,50.92-115.8,113.84-115.8" transform="translate(-4.45 -0.79)"/><path class="cls-7" d="M297.09,264.31c0-64-50.92-115.8-113.84-115.8" transform="translate(-4.45 -0.79)"/><path class="cls-4" d="M82.35,234.48s-23.57-6.27-31.93,2.06-11.3,44,3.06,49,30.29-2,30.29-2Z" transform="translate(-4.45 -0.79)"/><path class="cls-8" d="M70.09,282.44c0,1.34-12,1.13-16.28-2.24-2.91-2.3-9.54-14.69-4.26-21.7,4.26-5.64,20.53-18.7,20.53-18.7A98.73,98.73,0,0,0,70.09,282.44Z" transform="translate(-4.45 -0.79)"/><path class="cls-9" d="M265.85,206.32c17.45-23.59,35-24.29,52.53-1.86" transform="translate(-4.45 -0.79)"/><ellipse class="cls-10" cx="180.95" cy="263.52" rx="106.52" ry="108.35"/><path class="cls-1" d="M127.91,287c1.64,1.55,110.36.94,114.53,0,7.29-1.64-43.63,59-58,59S123.76,283.07,127.91,287Z" transform="translate(-4.45 -0.79)"/><polyline class="cls-11" points="211.06 315.55 210.34 317.67 233.32 289.64 210.61 314.86"/><path class="cls-11" d="M215.37,316.32s22.39-24.86,22.39-25.89c0-.56-47,0.51-47.05,0L156.93,319.3l14.27,14.28Z" transform="translate(-4.45 -0.79)"/><path class="cls-6" d="M121,235.2c17.45-34.09,35-35.1,52.53-2.68" transform="translate(-4.45 -0.79)"/><path class="cls-6" d="M196.75,235.2c17.45-34.09,35-35.1,52.53-2.68" transform="translate(-4.45 -0.79)"/><path class="cls-2" d="M183.87,342.62c-2.83-.53-4.88-2.29-8.44-5.36s-7.09-6.12-6.86-9.12c0.38-4.83,10-7.56,17.4-9.66,9.43-2.67,28-6.49,29.53-2.15,0.3,0.86,0,2.14-7.91,9.66C189.91,342.71,186.09,343,183.87,342.62Z" transform="translate(-4.45 -0.79)"/><path class="cls-12" d="M165.94,323.85" transform="translate(-4.45 -0.79)"/><path class="cls-13" d="M183.34,336.72a16,16,0,0,1,15.29-16.63" transform="translate(-4.45 -0.79)"/></svg>